{"title":"Sta dixtya tou pepromenou S02E12 Greek Subs","uid":13139214,"size":920176652,"categoryP":"video","categoryS":"tv_shows","magnet":"?xt=urn:btih:f3ac2379c96f9e1bd0e85da43440dbd59e84d0e6&amp;dn=Sta+dixtya+tou+pepromenou+S02E12+Greek+Subs&amp;tr=udp%3A%2F%2Ftracker.leechers-paradise.org%3A6969&amp;tr=udp%3A%2F%2Fzer0day.ch%3A1337&amp;tr=udp%3A%2F%2Fopen.demonii.com%3A1337&amp;tr=udp%3A%2F%2Ftracker.coppersurfer.tk%3A6969&amp;tr=udp%3A%2F%2Fexodus.desync.com%3A6969","seeders":0,"leechers":0,"uploader":"Aris2015","files":1,"time":1451947076,"description":"ÎœÎµÏ„Î¬ Ï„Î¿ ÎºÎ±Ï„Î­Î²Î±ÏƒÎ¼Î±, ÏƒÏ…Î½ÎµÏ‡Î¯ÏƒÏ„Îµ Î½Î± seedÎ±ÏÎµÏ„Îµ, Ï„Î¿Ï…Î»Î¬Ï‡Î¹ÏƒÏ„Î¿Î½ Î¼Î­Ï‡ÏÎ¹ Ï„Î¿ share ratio Î½Î± Î´ÎµÎ¯Î¾ÎµÎ¹ 3,00 Î•Ï„ÏƒÎ¹ Î²Î¿Î·Î¸Î¬Ï„Îµ ÎºÎ±Î¹ Ï„Î¿Ï…Ï‚ Î¬Î»Î»Î¿Ï…Ï‚, ÎºÎ±Î¹ Ï„Î± Î±ÏÏ‡ÎµÎ¯Î± Ï€Î±ÏÎ±Î¼Î­Î½Î¿Ï…Î½ ÎµÎ½ÎµÏÎ³Î¬ Î³Î¹Î± Ï€Î¿Î»Ï ÎºÎ±Î¹ÏÏŒ... \r\n\r\nÎ Î¡ÎŸÎ£ÎŸÎ§Î—: ÎœÎ•Î¤Î‘ Î¤ÎŸ Î¤Î•Î›ÎŸÎ£ Î¤ÎŸÎ¥ ÎšÎ‘Î¤Î•Î’Î‘Î£ÎœÎ‘Î¤ÎŸÎ£, ÎœÎ— Î¤ÎŸ Î”Î™Î‘Î“Î¡Î‘Î¨Î•Î¤Î• Î‘Î ÎŸ Î¤ÎŸ Î¤ÎŸÎ¡Î¡Î•ÎÎ¤. ÎšÎ¡Î‘Î¤Î©ÎÎ¤Î‘Î£ Î¤ÎŸ ÎšÎ‘Î™ SEEDÎ‘Î¡ÎŸÎÎ¤Î‘Î£, Î”Î™ÎÎ•Î¤Î• Î¤Î‘Î§Î¥Î¤Î—Î¤Î‘ Î£Î¤ÎŸÎ¥Î£ Î‘Î›Î›ÎŸÎ¥Î£! \r\n\r\nGeneral\r\nComplete name               : Sta.dixtya.tou.pepromenou.S02E12 Gr Subs.avi\r\nFormat                      : AVI\r\nFormat/Info                 : Audio Video Interleave\r\nFile size                   : 878 MiB\r\nDuration                    : 1h 35mn\r\nOverall bit rate            : 1 282 Kbps\r\nWriting application         : Lavf54.63.104\r\n\r\nVideo\r\nID                          : 0\r\nFormat                      : AVC\r\nFormat/Info                 : Advanced Video Codec\r\nFormat profile              :   \r\nFormat settings, CABAC      : Yes\r\nFormat settings, ReFrames   : 1 frame\r\nCodec ID                    : H264\r\nDuration                    : 1h 35mn\r\nBit rate                    : 1 020 Kbps\r\nWidth                       : 1 024 pixels\r\nHeight                      : 576 pixels\r\nDisplay aspect ratio        : 16:9\r\nFrame rate mode             : Variable\r\nFrame rate                  : 25.000 fps\r\nColor space                 : YUV\r\nChroma subsampling          : 4:2:0\r\nBit depth                   : 8 bits\r\nScan type                   : Progressive\r\nBits/(Pixel*Frame)          : 0.069\r\nStream size                 : 693 MiB (79%)\r\nWriting library             : x264 core 129\r\n\r\n\r\nAudio\r\nID                          : 1\r\nFormat                      : MPEG Audio\r\nFormat version              : Version 1\r\nFormat profile              : Layer 3\r\nMode                        : Joint stereo\r\nMode extension              : MS Stereo\r\nCodec ID                    : 55\r\nCodec ID/Hint               : MP3\r\nDuration                    : 1h 35mn\r\nBit rate mode               : Constant\r\nBit rate                    : 256 Kbps\r\nChannel(s)                  : 2 channels\r\nSampling rate               : 48.0 KHz\r\nCompression mode            : Lossy\r\nStream size                 : 175 MiB (20%)\r\nAlignment                   : Aligned on interleaves\r\nInterleave, duration        : 24 ms (0.60 video frame)\r\n\r\nSCREENSHOT: \nhttp://imgur.com/8NSi1rf","torrent":{"xt":"urn:btih:f3ac2379c96f9e1bd0e85da43440dbd59e84d0e6","amp;dn":"Sta+dixtya+tou+pepromenou+S02E12+Greek+Subs","amp;tr":["udp%3A%2F%2Ftracker.leechers-paradise.org%3A6969","udp%3A%2F%2Fzer0day.ch%3A1337","udp%3A%2F%2Fopen.demonii.com%3A1337","udp%3A%2F%2Ftracker.coppersurfer.tk%3A6969","udp%3A%2F%2Fexodus.desync.com%3A6969"],"infoHash":"f3ac2379c96f9e1bd0e85da43440dbd59e84d0e6","infoHashBuffer":{"type":"Buffer","data":[243,172,35,121,201,111,158,27,208,232,93,164,52,64,219,213,158,132,208,230]},"announce":[],"urlList":[]}}